<?xml version="1.0" standalone="no"?><!DOCTYPE svg PUBLIC "-//W3C//DTD SVG 1.1//EN" "http://www.w3.org/Graphics/SVG/1.1/DTD/svg11.dtd"><svg t="1711850237566" class="icon" viewBox="0 0 1024 1024" version="1.1" xmlns="http://www.w3.org/2000/svg" p-id="37230" xmlns:xlink="http://www.w3.org/1999/xlink" width="200" height="200"><path d="M199.111111 277.333333h632.888889a28.444444 28.444444 0 0 1 28.444444 28.444445v412.444444a28.444444 28.444444 0 0 1-28.444444 28.444445H199.111111a28.444444 28.444444 0 0 1-28.444444-28.444445v-412.444444a28.444444 28.444444 0 0 1 28.444444-28.444445z" fill="#EDF1FF" p-id="37231"></path><path d="M878.222222 775.210667l-0.241778 0.028444L56.888889 775.111111a14.222222 14.222222 0 0 0-14.222222 14.222222v48.426667c0 2.460444 0.64 4.878222 1.848889 7.025778C57.443556 867.512889 112.896 881.777778 152.007111 881.777778h713.472c41.002667 0 101.12-14.279111 114.005333-36.992a14.108444 14.108444 0 0 0 1.863112-7.025778V789.333333a14.222222 14.222222 0 0 0-14.222223-14.222222h-87.224889l-1.664 0.099556zM144.213333 803.555556l735.672889 0.128 1.806222-0.128H952.888889v29.269333l-0.938667 0.782222c-12.629333 9.386667-58.766222 19.726222-86.485333 19.726222H151.992889l-2.972445-0.042666c-26.254222-0.696889-64.995556-10.268444-76.8-19.413334L71.111111 832.938667V803.555556h73.102222z" fill="#7190FF" p-id="37232"></path><path d="M611.555556 782.222222a14.222222 14.222222 0 0 1 14.222222 14.222222v14.222223a14.222222 14.222222 0 0 1-14.222222 14.222222H412.444444a14.222222 14.222222 0 0 1-14.222222-14.222222v-14.222223a14.222222 14.222222 0 0 1 14.222222-14.222222h199.111112z m0 14.222222H412.444444v14.222223h199.111112v-14.222223z" fill="#7190FF" p-id="37233"></path><path d="M824.888889 213.333333a99.555556 99.555556 0 0 1 99.498667 96.142223L924.444444 312.888889v490.666667h-28.444444V312.888889a71.096889 71.096889 0 0 0-68.024889-71.04L824.888889 241.777778H206.222222a71.096889 71.096889 0 0 0-71.04 68.024889L135.111111 312.888889v490.666667h-28.444444V312.888889a99.555556 99.555556 0 0 1 96.142222-99.498667L206.222222 213.333333H824.888889z" fill="#7190FF" p-id="37234"></path><path d="M832 263.111111H199.111111a42.666667 42.666667 0 0 0-42.666667 42.666667v412.444444a42.666667 42.666667 0 0 0 42.666667 42.666667h632.888889a42.666667 42.666667 0 0 0 42.666667-42.666667v-412.444444a42.666667 42.666667 0 0 0-42.666667-42.666667z m-632.888889 28.444445h632.888889a14.222222 14.222222 0 0 1 14.222222 14.222222v412.444444a14.222222 14.222222 0 0 1-14.222222 14.222222H199.111111a14.222222 14.222222 0 0 1-14.222222-14.222222v-412.444444a14.222222 14.222222 0 0 1 14.222222-14.222222z" fill="#7190FF" p-id="37235"></path></svg>