<?xml version="1.0" standalone="no"?><!DOCTYPE svg PUBLIC "-//W3C//DTD SVG 1.1//EN" "http://www.w3.org/Graphics/SVG/1.1/DTD/svg11.dtd"><svg t="1711849577334" class="icon" viewBox="0 0 1024 1024" version="1.1" xmlns="http://www.w3.org/2000/svg" p-id="10420" xmlns:xlink="http://www.w3.org/1999/xlink" width="200" height="200"><path d="M320 352V32h384v320" fill="#E0EBFE" p-id="10421"></path><path d="M704 0H320a32 32 0 0 0-32 32v292.544c-55.04 14.304-96 64-96 123.456v448c0 70.592 57.408 128 128 128h384c70.592 0 128-57.408 128-128V448c0-59.456-40.96-109.12-96-123.456V32a32 32 0 0 0-32-32zM352 64h320v256H352V64z m416 384v448c0 35.296-28.704 64-64 64H320c-35.296 0-64-28.704-64-64V448c0-35.296 28.704-64 64-64h384c35.296 0 64 28.704 64 64z" fill="#5465CF" p-id="10422"></path><path d="M416 128h64v64h-64zM544 128h64v64h-64z" fill="#5465CF" p-id="10423"></path></svg>