<?xml version="1.0" standalone="no"?><!DOCTYPE svg PUBLIC "-//W3C//DTD SVG 1.1//EN" "http://www.w3.org/Graphics/SVG/1.1/DTD/svg11.dtd"><svg t="1712021888765" class="icon" viewBox="0 0 1024 1024" version="1.1" xmlns="http://www.w3.org/2000/svg" p-id="38736" xmlns:xlink="http://www.w3.org/1999/xlink" width="200" height="200"><path d="M560 209.6c-22.4-22.4-59.2-22.4-81.6 0L67.2 619.2c-44.8 44.8-8 153.6 83.2 244.8 91.2 89.6 201.6 126.4 246.4 81.6l411.2-409.6c22.4-22.4 22.4-59.2 0-81.6L560 209.6m185.6 307.2c-11.2 11.2-28.8 11.2-41.6 0L520 332.8 211.2 638.4c-11.2 11.2-30.4 11.2-41.6 0s-11.2-28.8 0-41.6L497.6 270.4c11.2-11.2 30.4-11.2 41.6 0L744 475.2c12.8 11.2 12.8 30.4 1.6 41.6M958.4 217.6L793.6 54.4c-22.4-22.4-59.2-22.4-81.6 0l-81.6 81.6c-22.4 22.4-22.4 59.2 0 81.6L795.2 380.8c22.4 22.4 59.2 22.4 81.6 0l81.6-81.6c22.4-22.4 22.4-59.2 0-81.6M716.8 208c-16 0-28.8-12.8-28.8-28.8s12.8-28.8 28.8-28.8 28.8 12.8 28.8 28.8S732.8 208 716.8 208M833.6 323.2c-16 0-28.8-12.8-28.8-28.8s12.8-28.8 28.8-28.8 28.8 12.8 28.8 28.8S849.6 323.2 833.6 323.2m0 0z" fill="#333333" p-id="38737"></path></svg>