<?xml version="1.0" standalone="no"?><!DOCTYPE svg PUBLIC "-//W3C//DTD SVG 1.1//EN" "http://www.w3.org/Graphics/SVG/1.1/DTD/svg11.dtd"><svg t="1711850254728" class="icon" viewBox="0 0 1024 1024" version="1.1" xmlns="http://www.w3.org/2000/svg" p-id="37381" xmlns:xlink="http://www.w3.org/1999/xlink" width="200" height="200"><path d="M994.946072 363.365587l0.032508-7.460571c0.065016-16.14019-11.361524-35.831873-25.502476-43.942603L436.971723 5.810794C429.844358 1.706667 423.383406 1.324698 418.726644 4.022857L412.168168 7.810032l1.674158 2.950095-6.582857 2.088635c2.600635 0 5.428825 0.609524 8.419556 1.909841l-3.510857 2.031746 1.674158 2.950095-6.582857 2.088635c3.470222 0 7.371175 1.089016 11.515937 3.470223l532.504381 306.151619c13.702095 7.858794 24.84419 26.591492 25.469968 42.422857l-1.397841 383.967492a24.584127 24.584127 0 0 1-1.714794 9.370413l1.666032 0.512c-0.105651 3.250794-0.682667 6.078984-1.666032 8.46019l4.047238 1.259683c2.795683-1.625397 5.599492-3.23454 8.395175-4.85181 4.583619-2.649397 7.43619-8.281397 7.468698-16.286476l1.430349-391.419937c0-0.503873-0.008127-1.007746-0.032508-1.519746" fill="#D4D4D4" p-id="37382"></path><path d="M438.922199 66.706286l512.682667 294.221206-1.024 357.798603-512.682667-294.213079 1.024-357.80673zM686.730199 185.58781a3.965968 3.965968 0 0 1 1.820445 0.568888l15.051174 8.638985c0.650159 0.373841 1.259683 0.893968 1.812318 1.495365a3.982222 3.982222 0 0 1-1.836699-0.568889l-15.051174-8.638984a7.590603 7.590603 0 0 1-1.796064-1.495365z m300.600889 174.730158c0.065016-16.148317-11.361524-35.84-25.494349-43.95073L429.324231 10.215619c-14.140952-8.135111-25.656889-1.633524-25.721905 14.506667l-1.430349 391.395555c0 0.487619 0.008127 0.967111 0.032508 1.446603l-0.032508 7.533715c-0.048762 16.148317 11.361524 35.84 25.502476 43.966984l532.504381 306.159746c14.140952 8.11073 25.656889 1.625397 25.721905-14.514794l1.430349-391.419936-0.024381-1.511619 0.024381-7.468699z" fill="#1F2023" p-id="37383"></path><path d="M702.187723 193.812317a7.371175 7.371175 0 0 1-3.348317-5.770158c0-2.113016 1.519746-2.982603 3.372698-1.926096a7.363048 7.363048 0 0 1 3.356445 5.79454c-0.008127 2.113016-1.519746 2.966349-3.380826 1.901714m1.414095-7.996952L688.550644 177.168254c-2.381206-1.37346-4.323556-0.26819-4.33981 2.47873 0 2.730667 1.926095 6.054603 4.315429 7.428064l15.051174 8.630857c2.405587 1.381587 4.347937 0.284444 4.364191-2.438095 0-2.755048-1.934222-6.078984-4.33981-7.460572" fill="#48484A" p-id="37384"></path><path d="M702.203977 186.12419c-1.844825-1.056508-3.356444-0.203175-3.364571 1.926096 0 2.104889 1.503492 4.705524 3.348317 5.762031 1.861079 1.056508 3.380825 0.203175 3.380826-1.901714a7.371175 7.371175 0 0 0-3.364572-5.786413" fill="#353535" p-id="37385"></path><path d="M951.629247 351.963429L438.922199 57.725968l-1.048381 366.770794 0.040635 0.024381-0.040635 12.231111 512.715175 294.229333 1.040254-366.770793-0.040635-0.016254z" fill="#4B4C56" p-id="37386"></path><path d="M437.881945 424.496762l0.032508 0.016254-0.032508 12.239238 513.747302-84.796952L438.922199 57.725968z" fill="#555661" p-id="37387"></path><path d="M883.79331 790.024127L687.624168 903.127365c-3.437714 1.958603-8.980317 1.96673-12.45054-0.024381l-73.532952-42.260317-332.572445-191.203556-67.193905-38.643809c-3.445841-1.982984-3.462095-5.185016-0.040635-7.168l196.185397-113.103239c3.429587-1.982984 8.996571-1.982984 12.45054 0l91.355429 52.540953L806.627596 738.499048l77.12508 44.340825c3.445841 1.982984 3.462095 5.185016 0.040634 7.168M501.434961 827.513905l-90.778412 52.321524c-4.299175 2.47873-11.296508 2.47873-15.636318-0.016254l-152.137143-87.462604c-2.023619-1.202794-3.112635-2.763175-3.104508-4.412952 0-1.706667 1.137778-3.299556 3.218286-4.502349l90.770286-52.337778c4.291048-2.47873 11.312762-2.470603 15.912635 0.16254l151.730793 87.235047c2.088635 1.202794 3.226413 2.80381 3.23454 4.50235 0.024381 1.69854-1.121524 3.299556-3.210159 4.510476M958.984168 773.339429L426.967406 467.464127c-14.140952-8.11073-36.994032-8.135111-51.078096-0.024381L34.970453 664.007111c-14.043429 8.118857-14.010921 21.268317 0.113778 29.403429l274.992762 158.086095-52.199619-30.029206c2.535619-1.462857 6.704762-1.487238 9.321651 0.016254l77.482666 44.560254c2.584381 1.479111 2.616889 3.868444 0.032508 5.363809l222.411175 127.861841c14.124698 8.126984 36.977778 8.151365 51.03746 0.048762l340.935111-196.591746c14.075937-8.102603 14.019048-21.268317-0.121904-29.387174" fill="#AAACB7" p-id="37388"></path><path d="M883.744549 782.848l-77.108826-44.340825-304.810666-175.242159-91.347302-52.532826c-3.453968-1.982984-9.020952-1.982984-12.458667 0l-196.185397 113.103239c-3.42146 1.982984-3.413333 5.185016 0.048762 7.168l67.185778 38.643809 332.572445 191.195429 73.589841 42.292825c3.413333 1.96673 8.955937 1.958603 12.393651 0l196.169142-113.119492c3.429587-1.982984 3.413333-5.185016-0.048761-7.168z" fill="#9193A2" p-id="37389"></path><path d="M402.862771 882.184127a15.44127 15.44127 0 0 1-7.558095-1.812317L244.004612 793.372444c-2.820063-1.625397-4.201651-3.397079-4.217905-5.428825-0.008127-1.950476 1.219048-3.738413 3.470223-5.03873l90.762158-52.337778a15.19746 15.19746 0 0 1 7.49308-1.80419c2.868825 0 5.591365 0.666413 7.68 1.869206l0.674539 0.373841 151.267556 86.974984c2.251175 1.29219 3.494603 3.072 3.494603 5.01435 0.024381 1.950476-1.219048 3.738413-3.462095 5.03873l-90.762159 52.337778a15.36 15.36 0 0 1-7.549968 1.812317" fill="#BABABC" p-id="37390"></path><path d="M500.54912 819.004952L349.281564 732.038095l-0.674539-0.390095c-3.917206-2.251175-10.15873-2.259302-13.978413-0.056889l-90.762159 52.337778c-1.869206 1.089016-2.885079 2.494984-2.876952 4.006603 0 1.519746 1.056508 2.941968 3.616508 4.412952L395.897945 879.339683c3.835937 2.194286 10.101841 2.194286 13.921524 0l90.754032-52.337778c1.852952-1.072762 2.885079-2.494984 2.876952-4.006603 0-1.519746-1.040254-2.925714-2.901333-3.998477" fill="#9898A0" p-id="37391"></path><path d="M675.311787 873.545143l18.366984 10.565079-14.303492 8.27327-18.399492-10.581333 14.336-8.257016z m-20.171175-11.605333l18.366984 10.565079-14.311619 8.257016-18.366984-10.56508 14.311619-8.257015z m15.798857-9.102223l18.35073 10.556953-14.311619 8.265143-18.366984-10.56508 14.327873-8.257016z m9.581714-33.109333l62.512762 35.937524-26.632127 15.335619-62.512761-35.937524 26.632126-15.335619z m-45.551746 30.622476l18.366985 10.56508-14.319746 8.248888-18.375112-10.565079 14.327873-8.248889z m-18.838349-29.029587l30.841905 17.741206-30.102349 17.367365-30.858159-17.733079 30.118603-17.375492z m115.460064-9.939302l44.178285 25.396826-26.591492 15.343746-44.178285-25.404953 26.591492-15.335619zM581.079406 801.182476l30.866285 17.73308-30.118603 17.375492-30.841905-17.741207 30.094223-17.367365z m200.330158 1.536l26.770286 15.384381-26.607746 15.327492-26.737778-15.376254 26.575238-15.335619z m-135.940063-3.15327l27.932444 16.075175-26.632127 15.335619-27.908063-16.058921 26.607746-15.351873z m53.784381-6.786031l26.770286 15.376254-26.607746 15.351873-26.778413-15.384381 26.615873-15.343746zM392.712168 692.882286l184.254984 105.935238-30.094222 17.367365-184.279366-105.935238 30.118604-17.367365z m357.912381 92.119365l26.762158 15.384381-26.615873 15.343746-26.745904-15.392508 26.591492-15.335619z m29.663492-21.650286l61.521269 35.352381-28.208761 16.270222-61.505016-35.360508 28.192508-16.262095z m-165.652318 18.497016l27.924318 16.050794-26.615873 15.343746-27.940572-16.058921 26.632127-15.335619z m53.776254-6.786032l26.770286 15.376254-26.615873 15.335619-26.737778-15.376254 26.583365-15.335619z m51.931429-7.468698l26.762158 15.392508-26.591492 15.335619-26.762158-15.384381 26.583365-15.343746z m115.760762 0.43073l29.500952 16.952889-18.570159 10.703238-29.484698-16.961016 18.553905-10.695111z m-252.099048-3.779048l27.948698 16.067048-26.607746 15.343746-27.924317-16.067048 26.583365-15.343746z m53.182984-7.151746l26.737778 15.384381-26.599619 15.335619-26.770286-15.384381 26.632127-15.335619z m52.703492-7.013587l26.762159 15.376254-26.607746 15.36-26.770286-15.384381 26.615873-15.351873z m-136.695873-3.559619l27.940572 16.058921-26.632127 15.335619-27.924318-16.050794 26.607746-15.343746z m193.479111-2.511238l29.557842 16.985397-28.233143 16.270222-29.557842-16.985397 28.233143-16.270222z m56.441905 5.03873l29.476571 16.961016-18.553904 10.695111-29.500953-16.952889 18.578286-10.703238z m-196.786794-9.687365l26.770286 15.384381-26.591492 15.335619-26.770286-15.384381 26.591492-15.335619z m53.280508-6.672254l26.770286 15.376254-26.615873 15.343746-26.737778-15.384381 26.583365-15.335619z m-137.020952-3.754667l27.91619 16.050794-26.624 15.335619-27.932444-16.050794 26.632127-15.335619z m190.837841-4.039111l29.541588 16.993524-28.216889 16.270222-29.533461-17.001651 28.208762-16.262095z m56.653207 5.168762l29.525333 16.969143-18.562032 10.695111-29.500952-16.952889 18.537651-10.711365zM575.455533 721.594921l26.737777 15.376254-26.607746 15.343746-26.737777-15.368127 26.607746-15.351873z m53.08546-6.786032l26.762159 15.376254-26.607746 15.351873-26.770286-15.384381 26.615873-15.343746z m-136.801524-3.624635l27.924318 16.050794-26.607746 15.36-27.948699-16.067048 26.632127-15.343746z m189.106794-5.014349l29.53346 16.969143-28.200635 16.278349-29.565968-16.985397 28.233143-16.262095z m56.133079 4.851809l29.476572 16.961016-18.553905 10.703238-29.500952-16.952889 18.578285-10.711365z m-192.812698-7.403682l26.770286 15.384381-26.615873 15.351873-26.745905-15.400635 26.591492-15.335619z m54.093206-6.209016l26.770286 15.384381-26.615873 15.343746-26.737778-15.392508 26.583365-15.335619z m-137.126603-3.811556l27.932444 16.058921-26.615873 15.343746-27.924317-16.067048 26.607746-15.335619z m186.465524-6.550349l29.541587 17.001651-28.208762 16.262095-29.541587-16.985397 28.208762-16.278349z m56.344381 4.998095l29.525333 16.961016-18.562032 10.695111-29.500952-16.952889 18.537651-10.703238z m-190.602159-6.160254l26.754032 15.392508-26.607746 15.335619-26.754032-15.368127 26.607746-15.36z m54.450794-6.005841l26.754031 15.384381-26.599619 15.343746-26.762158-15.376254 26.607746-15.351873z m-210.846477-7.566222l30.841905 17.733079-30.102349 17.367365-30.88254-17.741206 30.151111-17.359238z m73.118477 3.413333l27.932444 16.075175-26.591492 15.335619-27.956825-16.058921 26.615873-15.351873z m184.466285-7.688127l29.541588 16.985397-28.216889 16.270222-29.541588-17.001651 28.216889-16.253968z m56.360635 4.998095l29.500953 16.944762-18.570159 10.719492-29.500952-16.961015 18.570158-10.703239z m-188.464762-4.908698l26.770286 15.376254-26.615873 15.351873-26.762159-15.384381 26.615873-15.343746z m55.092826-5.648254l26.762159 15.384381-26.615873 15.351873-26.762159-15.392508 26.615873-15.343746z m-138.077461-4.347936l27.948699 16.05892-26.615873 15.36-27.932445-16.083301 26.591492-15.335619z m-77.856507-6.135873l30.882539 17.741206-30.134857 17.367365-30.841905-17.749333 30.094223-17.359238z m259.697777-3.080127l29.541588 17.00165-28.192508 16.270223-29.557842-16.993524 28.208762-16.278349z m56.596318 5.152508l29.500952 16.952888-18.553905 10.695112-29.500952-16.952889 18.553905-10.695111z m-186.302984-3.673397l26.762158 15.384381-26.591492 15.335619-26.770285-15.384381 26.599619-15.335619z m55.99492-5.12l26.737778 15.368127-26.583365 15.343746-26.745905-15.376254 26.583365-15.335619z m-138.971428-4.892445l27.948698 16.091429-26.615873 15.319365-27.948698-16.058921 26.615873-15.351873z m-82.545778-8.817778l30.858159 17.724953-30.134857 17.367365-30.858159-17.733079 30.134857-17.359239z m134.696635 1.097143l26.770286 15.384381-26.632127 15.335619-26.737778-15.384381 26.599619-15.335619z m127.431111-2.763174l29.557841 16.985397-28.233143 16.270222-29.541587-16.985397 28.216889-16.270222z m56.726349 5.20127l29.500953 16.952888-18.578286 10.703239-29.484699-16.961016 18.562032-10.695111z m-127.618032-7.24927l26.770286 15.384381-26.615873 15.351873-26.762159-15.384381 26.607746-15.351873z m-193.121523-36.00254l79.11619 45.48673-26.615873 15.351873-79.108063-45.48673 26.607746-15.351873zM250.717501 611.230476l30.858159 17.757461-30.118603 17.351111-30.88254-17.741207 30.142984-17.367365z m139.133968 3.657143l26.754032 15.392508-26.599619 15.343746-26.762159-15.392508 26.615873-15.343746z m125.098667-4.096l29.525333 16.985397-28.192508 16.253968-29.557841-16.985397 28.225016-16.253968z m56.945778 5.339429L601.396866 633.083937l-18.553905 10.695111-29.500952-16.952889 18.553905-10.695111zM446.984168 610.434032l26.770285 15.376254-26.632127 15.343746L420.384549 625.777778 446.984168 610.434032z m-130.048-37.465397l67.372698 38.733206-26.599619 15.351873-67.388952-38.733206 26.615873-15.351873z m165.400381 19.074032l29.557841 16.985396-28.233143 16.262096-29.517206-16.985397 28.200635-16.262095z m56.596317 5.12l29.500952 16.952889-18.570158 10.711365-29.484699-16.969143 18.553905-10.695111z m-122.20546-4.144762l26.721524 15.384381-26.591493 15.343746-26.737777-15.376254 26.607746-15.343746z m32.386031-20.089905l29.541588 17.001651-28.216889 16.253968-29.557841-16.985397 28.233142-16.270222z m56.669461 5.193143l29.500952 16.952889-18.553905 10.695111-29.500952-16.952889 18.553905-10.695111z m-156.452572-23.844572l60.277842 34.661588-26.607746 15.327492-60.269715-34.653461 26.599619-15.335619z m66.868826-0.284444l29.541587 17.001651-28.216889 16.270222-29.541587-16.985397 28.216889-16.286476z m56.596317 5.152508l29.500953 16.952889-18.578286 10.703238-29.484699-16.961016 18.562032-10.695111zM382.943533 534.901841l29.557841 16.985397-28.233143 16.253968-29.53346-16.969143 28.208762-16.270222z m56.832 5.274413l29.517206 16.961016-18.553905 10.695111-29.525333-16.961016 18.562032-10.695111z m-32.971175-18.968381l29.500952 16.952889-18.578285 10.711365-29.484699-16.969143 18.562032-10.695111z" fill="#1F2023" p-id="37392"></path><path d="M618.162834 999.318349c-14.059683 8.102603-36.912762 8.078222-51.03746-0.048762L344.714199 871.407746c2.584381-1.487238 2.551873-3.876571-0.032508-5.363809l-77.482666-44.552127c-2.616889-1.503492-6.786032-1.487238-9.321651-0.024381l52.199619 30.029206L35.084231 693.41054C28.168168 689.428317 24.65731 684.243302 24.494771 679.033905l-0.08127 0.016254L24.380993 690.948063c-0.016254 5.347556 3.527111 10.703238 10.613841 14.791112l265.671111 152.730412 42.097778 24.202159 1.869207 1.064635 222.411174 127.861841c0.845206 0.487619 1.731048 0.94273 2.64127 1.381588 0.333206 0.154413 0.690794 0.284444 1.024 0.43073 0.520127 0.235683 1.040254 0.479492 1.576635 0.682666l0.16254 0.056889c1.259683 0.487619 2.551873 0.918349 3.876571 1.300318l0.341333 0.121904 0.94273 0.227556c0.731429 0.195048 1.462857 0.373841 2.21054 0.544508l0.617651 0.138159c0.284444 0.065016 0.585143 0.097524 0.869587 0.162539 0.633905 0.113778 1.275937 0.227556 1.917969 0.32508l0.788317 0.138158c0.276317 0.040635 0.544508 0.048762 0.812698 0.089397 0.617651 0.08127 1.219048 0.138159 1.828572 0.203175 0.292571 0.032508 0.577016 0.08127 0.869587 0.097524 0.251937 0.024381 0.503873 0.024381 0.75581 0.040635 0.633905 0.048762 1.259683 0.073143 1.893587 0.097523l0.902095 0.048762h0.67454c0.698921 0 1.389714 0 2.088635-0.016254 0.316952 0 0.625778 0.016254 0.934603 0 0.178794 0 0.341333-0.024381 0.512-0.040635 0.877714-0.032508 1.755429-0.097524 2.625016-0.162539 0.284444-0.032508 0.585143-0.032508 0.869587-0.056889a56.254984 56.254984 0 0 0 4.591746-0.633905l1.18654-0.260063c0.650159-0.130032 1.300317-0.260063 1.950476-0.40635 0.471365-0.113778 0.94273-0.251937 1.405968-0.373841 0.633905-0.178794 1.275937-0.34946 1.893588-0.544508l0.398222-0.113778c0.211302-0.073143 0.398222-0.16254 0.601397-0.227555 0.975238-0.325079 1.934222-0.682667 2.860698-1.072762 0.341333-0.146286 0.67454-0.276317 1.015873-0.43073 1.170286-0.520127 2.31619-1.080889 3.397079-1.706667l340.926985-196.583619 0.479492-0.276317c0.325079-0.186921 0.59327-0.406349 0.893968-0.59327 0.455111-0.292571 0.910222-0.577016 1.332825-0.877714 0.341333-0.24381 0.650159-0.503873 0.975238-0.763937 0.390095-0.316952 0.788317-0.625778 1.145905-0.94273 0.073143-0.065016 0.16254-0.121905 0.227556-0.186921 0.130032-0.121905 0.227556-0.260063 0.357587-0.381968 0.560762-0.544508 1.080889-1.097143 1.544127-1.657905 0.105651-0.113778 0.235683-0.235683 0.325079-0.34946 0.097524-0.113778 0.16254-0.24381 0.24381-0.34946 0.308825-0.406349 0.585143-0.828952 0.845206-1.251556 0.113778-0.178794 0.26819-0.357587 0.365715-0.544508 0.048762-0.08127 0.08127-0.186921 0.130031-0.276317 0.195048-0.357587 0.357587-0.723302 0.520127-1.089016 0.097524-0.219429 0.227556-0.438857 0.308826-0.666413l0.065016-0.227556c0.121905-0.341333 0.211302-0.690794 0.300698-1.040253 0.065016-0.251937 0.170667-0.503873 0.219428-0.747683l0.024381-0.211302c0.065016-0.341333 0.08127-0.707048 0.121905-1.056508 0.024381-0.260063 0.08127-0.528254 0.089397-0.796444v-0.316952c0.016254-3.754667 0.040635-7.51746 0.040635-11.272127-0.446984 4.933079-3.925333 9.793016-10.467556 13.563936l-340.926984 196.583619z" fill="#888A93" p-id="37393"></path><path d="M344.681691 866.043937l-77.523301-44.576508c-2.576254-1.479111-6.745397-1.462857-9.29727 0l52.215873 30.029206 34.637206 19.911111c2.584381-1.495365 2.551873-3.876571-0.032508-5.363809" fill="#5B5C61" p-id="37394"></path></svg>