<?xml version="1.0" standalone="no"?><!DOCTYPE svg PUBLIC "-//W3C//DTD SVG 1.1//EN" "http://www.w3.org/Graphics/SVG/1.1/DTD/svg11.dtd"><svg t="1712021687516" class="icon" viewBox="0 0 1024 1024" version="1.1" xmlns="http://www.w3.org/2000/svg" p-id="23021" xmlns:xlink="http://www.w3.org/1999/xlink" width="200" height="200"><path d="M774.609696 53.514928l-229.97604 225.426154-70.150964-68.248285c52.720766-56.145589 116.419166-120.894599 191.095198-194.238756 41.858948-41.114421 76.851705 3.805359 109.031806 37.060887z" fill="#E2F0FA" p-id="23022"></path><path d="M865.607409 94.877525l-78.340758 78.588934c-10.53919 10.530917-13.401481 21.591276-8.603421 33.172803l15.221436 37.309063c1.05061 2.547936 0.686619 5.244777-0.909977 6.783466l-43.927078 42.768925a6.014122 6.014122 0 0 1-6.866191 0.992702c-29.78107-14.228733-43.017101-27.54749-72.880896-1.323603-25.537267 22.443345-43.629267 41.031696-54.267728 55.756781l-70.39914-69.985514 229.97604-225.426154c39.377192-14.146008 62.457522 10.423374 90.997713 41.362597z" fill="#C8D9E5" p-id="23023"></path><path d="M865.607409 94.877525a48.278423 48.278423 0 0 1 22.749429 24.155757l-77.678958 79.250736c-1.621414 1.654504-1.654504 4.359618-0.082725 6.287114 25.231184 31.435574 17.703192 57.163109-9.678847 84.131523-17.289566 16.958665-35.985459 42.272574-64.194751 37.474513-11.746978-2.06813-22.253077-10.919726-34.579131-15.386886-2.192218-0.818979-4.781516-0.206813-6.700741 1.571778l-60.968468 56.418583-19.440421-19.854047c10.63846-14.725085 28.73046-33.313436 54.267728-55.756781 29.863795-26.223887 43.099826-12.90513 72.880896 1.323603 2.365941 1.133335 5.112417 0.744527 6.866191-0.992702l43.927078-42.768925c1.596596-1.538689 1.960587-4.23553 0.909977-6.783466l-15.221436-37.309063c-4.798061-11.581527-1.93577-22.641886 8.603421-33.172803l78.340758-78.588934z" fill="#E2F0FA" p-id="23024"></path><path d="M888.356838 119.033282c21.674001 20.102222 99.187508 78.919835 85.20695 127.562249a4263.102245 4263.102245 0 0 1-230.306941 230.555116l-108.78363-108.370004 60.968468-56.418583c1.919225-1.778592 4.508523-2.390758 6.700741-1.571778 12.326054 4.46716 22.832154 13.318756 34.579131 15.386886 28.209291 4.798061 46.905185-20.515848 64.194751-37.474513 27.382039-26.968413 34.910032-52.695949 9.678847-84.131523-1.571779-1.927497-1.538689-4.632611 0.082725-6.287114l77.678958-79.250736z" fill="#C8D9E5" p-id="23025"></path><path d="M474.482692 210.692797l70.150964 68.248285 70.39914 69.985514 19.440421 19.854047 108.78363 108.370004 68.248285 70.316415c15.469611 27.87839 7.362542 47.153361-14.146008 69.737339a5032.214919 5032.214919 0 0 1-209.542916 207.888412c-83.883347 78.506209-152.876159 7.279817-213.182826-53.5232l-120.613333-119.45518c-48.807865-54.267727-106.7155-91.328614-79.995262-172.399305 5.236505-15.999053 17.066208-33.561611 35.489108-52.695949a7722.264508 7722.264508 0 0 1 198.871367-199.864069c20.350398-19.688596 40.28717-27.299314 66.09743-16.462313z" fill="#4B6182" p-id="23026"></path><path d="M973.563788 246.595531c29.367444 43.844353 77.265331 61.712995 21.012199 120.447883a4554.716827 4554.716827 0 0 1-183.070855 180.423648l-68.248285-70.316415a4263.102245 4263.102245 0 0 0 230.306941-230.555116z" fill="#E2F0FA" p-id="23027"></path><path d="M254.020049 652.114433l120.613333 119.45518-253.056368 251.153689a4.549886 4.549886 0 0 1-6.121665 0.16545c-39.931451-34.471588-76.222994-70.043422-108.866355-106.7155a12.532867 12.532867 0 0 1 0.413626-17.289565l247.017429-246.769254z" fill="#6580A6" p-id="23028"></path></svg>