<?xml version="1.0" standalone="no"?><!DOCTYPE svg PUBLIC "-//W3C//DTD SVG 1.1//EN" "http://www.w3.org/Graphics/SVG/1.1/DTD/svg11.dtd"><svg t="1711850333127" class="icon" viewBox="0 0 1024 1024" version="1.1" xmlns="http://www.w3.org/2000/svg" p-id="39855" xmlns:xlink="http://www.w3.org/1999/xlink" width="200" height="200"><path d="M217.234286 698.953143h589.165714c69.485714 0 105.764571-35.986286 105.764571-104.777143v-192.841143c0-68.790857-36.315429-104.813714-105.728-104.813714H217.234286c-69.778286 0-105.764571 35.693714-105.764572 104.813714v192.841143c0 69.12 35.986286 104.777143 105.728 104.777143z m4.205714-63.963429c-29.586286 0-45.970286-15.433143-45.970286-46.592v-181.613714c0-30.866286 16.384-46.299429 45.970286-46.299429h580.790857c29.257143 0 45.677714 15.433143 45.677714 46.299429v181.613714c0 31.158857-16.420571 46.592-45.641142 46.592H221.403429z m522.605714-53.357714c23.478857-0.292571 43.410286-19.931429 43.410286-43.373714 0-24.137143-19.931429-44.032-43.373714-44.032-23.478857 0-43.410286 19.931429-43.410286 44.032 0 23.442286 19.931429 44.032 43.410286 43.373714z" fill="#1C1C1E" p-id="39856"></path></svg>